<?xml version="1.0" encoding="utf-8"?>
<!-- Generator: Adobe Illustrator 28.2.0, SVG Export Plug-In . SVG Version: 6.00 Build 0)  -->
<svg version="1.1" id="Layer_2" xmlns="http://www.w3.org/2000/svg" xmlns:xlink="http://www.w3.org/1999/xlink" x="0px" y="0px"
	 viewBox="0 0 2848 1717.5" style="enable-background:new 0 0 2848 1717.5;" xml:space="preserve">
<style type="text/css">
	.st0{fill:#FFFFFF;}
	.st1{fill:#E8A23B;}
	.st2{fill:#EDE8E0;}
</style>
<g>
	<g>
		<g>
			<g>
				<path class="st1" d="M855.65,954.75h-78.61V700.76h78.61c33.28,0,64.56,13.21,88.09,37.2c23.53,23.99,36.49,55.88,36.49,89.8
					s-12.96,65.81-36.49,89.8C920.21,941.54,888.93,954.75,855.65,954.75z M796.34,935.07h59.3c58.05,0,105.27-48.14,105.27-107.31
					c0-59.17-47.23-107.31-105.27-107.31h-59.3V935.07z"/>
			</g>
		</g>
		<g>
			<g>
				<g>
					<g>
						<rect x="831.16" y="863.48" width="12.98" height="5.74"/>
					</g>
					<g>
						<rect x="857.13" y="863.48" width="12.98" height="5.74"/>
					</g>
					<g>
						<rect x="883.09" y="863.48" width="12.98" height="5.74"/>
					</g>
					<g>
						<rect x="909.06" y="863.48" width="12.98" height="5.74"/>
					</g>
				</g>
			</g>
			<g>
				<g>
					<g>
						<rect x="818.18" y="824.88" width="12.98" height="5.74"/>
					</g>
					<g>
						<rect x="844.15" y="824.88" width="12.98" height="5.74"/>
					</g>
					<g>
						<rect x="870.11" y="824.88" width="12.98" height="5.74"/>
					</g>
					<g>
						<rect x="896.07" y="824.88" width="12.98" height="5.74"/>
					</g>
				</g>
				<g>
					<rect x="922.04" y="824.88" width="12.98" height="5.74"/>
				</g>
			</g>
			<g>
				<g>
					<g>
						<rect x="831.16" y="786.28" width="12.98" height="5.74"/>
					</g>
					<g>
						<rect x="857.13" y="786.28" width="12.98" height="5.74"/>
					</g>
					<g>
						<rect x="883.09" y="786.28" width="12.98" height="5.74"/>
					</g>
					<g>
						<rect x="909.06" y="786.28" width="12.98" height="5.74"/>
					</g>
				</g>
			</g>
		</g>
	</g>
	<g>
		<g>
			<rect x="1025.23" y="784.32" class="st1" width="19.3" height="170.43"/>
		</g>
		<g>
			<rect x="1893.89" y="869.54" class="st1" width="19.3" height="85.21"/>
		</g>
		<g>
			<path class="st1" d="M1044.53,846.8h-19.3c0-32.34,26.31-58.64,58.64-58.64h39.76v19.3h-39.76
				C1062.18,807.46,1044.53,825.11,1044.53,846.8z"/>
		</g>
		<g>
			<g>
				<path class="st1" d="M1470.06,784.32l-67.39,170.43l-0.04,0.09c-6.9-0.01-13.8-0.02-20.7-0.02l-0.03-0.07l-67.39-170.43h20.76
					l57.01,144.18l57.02-144.18H1470.06z"/>
			</g>
		</g>
		<g>
			<path class="st1" d="M1736.98,784.32l-67.39,170.43l-0.03,0.07c-6.9,0.01-13.8,0.02-20.7,0.02l-0.04-0.09l-33.79-85.43
				l-33.78,85.43l-0.05,0.14c-6.88,0-13.77,0.01-20.65,0.01l-0.06-0.14l-67.39-170.43h20.76l57.01,144.18l44.16-111.68l44.16,111.68
				l57.02-144.18H1736.98z"/>
		</g>
		<path class="st1" d="M1827.98,803.62c17.61,0,34.16,6.86,46.61,19.31s19.31,29,19.31,46.61s-6.86,34.16-19.31,46.61
			c-12.45,12.45-29,19.31-46.61,19.31c-17.61,0-34.16-6.86-46.61-19.31c-12.45-12.45-19.31-29-19.31-46.61s6.86-34.16,19.31-46.61
			C1793.82,810.48,1810.37,803.62,1827.98,803.62 M1827.98,784.32c-47.06,0-85.22,38.15-85.22,85.22
			c0,47.06,38.15,85.22,85.22,85.22c47.06,0,85.22-38.15,85.22-85.22C1913.19,822.47,1875.04,784.32,1827.98,784.32L1827.98,784.32z
			"/>
		<polygon class="st1" points="1177.75,1016.74 1208.49,941.05 1143.73,783.66 1166.01,783.66 1219.63,918.58 1272.09,783.66 
			1292.91,783.66 1198.86,1016.74 		"/>
		<polygon class="st1" points="1165.56,784.32 1144.73,784.32 1209.21,941.04 1178.74,1016.08 1198.41,1016.08 1291.92,784.32 
			1272.54,784.32 1219.64,920.41 		"/>
		<polygon class="st1" points="1955.8,1016.74 1986.54,941.05 1921.79,783.66 1944.06,783.66 1997.68,918.58 2050.14,783.66 
			2070.96,783.66 1976.92,1016.74 		"/>
		<polygon class="st1" points="1943.61,784.32 1922.78,784.32 1987.26,941.04 1956.79,1016.08 1976.47,1016.08 2069.98,784.32 
			2050.59,784.32 1997.69,920.41 		"/>
	</g>
</g>
</svg>
