<?xml version="1.0" encoding="utf-8"?>
<!-- Generator: Adobe Illustrator 28.2.0, SVG Export Plug-In . SVG Version: 6.00 Build 0)  -->
<svg version="1.1" id="Layer_2" xmlns="http://www.w3.org/2000/svg" xmlns:xlink="http://www.w3.org/1999/xlink" x="0px" y="0px"
	 viewBox="0 0 2848 1717.5" style="enable-background:new 0 0 2848 1717.5;" xml:space="preserve">
<style type="text/css">
	.st0{fill:#FFFFFF;}
	.st1{fill:#E8A23B;}
	.st2{fill:#EDE8E0;}
</style>
<g>
	<g>
		<g>
			<g>
				<path class="st1" d="M1375.34,1127.6h-166.42V589.9h166.42c70.45,0,136.68,27.97,186.5,78.75s77.25,118.29,77.25,190.11
					s-27.43,139.33-77.25,190.11C1512.02,1099.64,1445.79,1127.6,1375.34,1127.6z M1249.79,1085.94h125.55
					c122.89,0,222.87-101.92,222.87-227.19c0-125.27-99.98-227.19-222.87-227.19h-125.55V1085.94z"/>
			</g>
		</g>
		<g>
			<g>
				<g>
					<g>
						<rect x="1323.51" y="934.39" width="27.48" height="12.16"/>
					</g>
					<g>
						<rect x="1378.47" y="934.39" width="27.48" height="12.16"/>
					</g>
					<g>
						<rect x="1433.44" y="934.39" width="27.48" height="12.16"/>
					</g>
					<g>
						<rect x="1488.41" y="934.39" width="27.48" height="12.16"/>
					</g>
				</g>
			</g>
			<g>
				<g>
					<g>
						<rect x="1296.03" y="852.67" width="27.48" height="12.16"/>
					</g>
					<g>
						<rect x="1350.99" y="852.67" width="27.48" height="12.16"/>
					</g>
					<g>
						<rect x="1405.96" y="852.67" width="27.48" height="12.16"/>
					</g>
					<g>
						<rect x="1460.92" y="852.67" width="27.48" height="12.16"/>
					</g>
				</g>
				<g>
					<rect x="1515.89" y="852.67" width="27.48" height="12.16"/>
				</g>
			</g>
			<g>
				<g>
					<g>
						<rect x="1323.51" y="770.95" width="27.48" height="12.16"/>
					</g>
					<g>
						<rect x="1378.47" y="770.95" width="27.48" height="12.16"/>
					</g>
					<g>
						<rect x="1433.44" y="770.95" width="27.48" height="12.16"/>
					</g>
					<g>
						<rect x="1488.41" y="770.95" width="27.48" height="12.16"/>
					</g>
				</g>
			</g>
		</g>
	</g>
</g>
</svg>
